<svg width="57" height="54" viewBox="0 0 57 54" fill="none" xmlns="http://www.w3.org/2000/svg">
<path d="M43.1408 37.8473C43.921 38.3242 44.699 39.0923 45.06 40.3371C45.0968 40.4655 45.1715 40.5718 45.2677 40.6488C45.4221 40.7723 45.6336 40.8202 45.8386 40.7584C46.1721 40.6574 46.3638 40.3054 46.2676 39.9722C45.4972 37.3138 43.3164 36.3549 42.0496 36.0152C42.4342 35.2252 42.859 33.9019 42.681 32.0954C42.2697 27.9256 38.9818 23.4203 32.91 18.7246C18.9258 7.88886 18.9973 2.80284 19.6758 1.11633C19.8061 0.792135 19.6499 0.424953 19.3293 0.298947C19.0074 0.17192 18.6408 0.331771 18.51 0.655626C17.7262 2.60098 17.8808 6.65645 25.2665 13.8355C23.1206 13.3762 20.2247 13.4807 17.6357 16.0068C17.2759 15.2401 16.4461 14.2872 14.6127 13.3529C14.3044 13.1958 13.9247 13.3205 13.7649 13.631C13.605 13.9415 13.7225 14.3221 14.0326 14.4778C15.0707 15.0065 15.6931 15.5088 16.069 15.9354C12.7784 14.3692 8.69534 15.223 6.29643 18.2203C3.50351 21.7099 4.03816 26.7946 7.48774 29.5555C9.45072 31.1265 11.9397 31.6071 14.2367 31.0903C14.2353 33.4443 15.2508 35.7686 17.2142 37.34C20.6634 40.1006 25.7416 39.5082 28.5345 36.0186C30.6638 33.3582 30.8539 29.7735 29.2995 26.9953C29.6988 27.3072 30.0933 27.6914 30.4367 28.1717C30.6355 28.4508 31.0304 28.5155 31.3135 28.31C31.5966 28.1052 31.6624 27.711 31.4614 27.4294C30.3783 25.9123 28.9148 25.1681 27.9805 24.8235C28.7004 23.9284 30.1587 22.429 32.0568 22.1019C33.4996 21.8538 34.9791 22.327 36.4424 23.5207C40.0976 27.2531 41.2136 30.1937 41.4237 32.1763C41.5708 33.5627 41.3047 34.5902 41.0316 35.24C40.1547 33.9607 38.391 31.872 36.3129 32.091C35.9672 32.1278 35.7131 32.4384 35.7455 32.7841C35.7785 33.1318 36.0857 33.3819 36.4305 33.3451C37.2705 33.2563 38.146 33.8574 38.8821 34.6083C35.8015 33.6366 32.2812 34.5955 30.1237 37.2912C27.3308 40.7808 27.8654 45.8655 31.315 48.6263C34.7657 51.3867 39.844 50.7943 42.6369 47.3047C44.8791 44.5032 44.973 40.6769 43.1408 37.8473ZM8.27965 28.5669C5.36898 26.2373 4.91812 21.9469 7.27466 19.0025C8.88655 16.9885 11.4009 16.119 13.7604 16.5156C12.9831 16.8092 12.2347 17.3808 11.6399 18.3873C11.4782 18.6617 11.5444 19.007 11.7835 19.1983C11.8069 19.2171 11.8316 19.2341 11.8589 19.2488C12.157 19.4239 12.5425 19.3215 12.7209 19.0202C12.8687 18.7693 14.2124 16.6692 16.7148 17.8523C16.9313 18.5374 17.4628 20.7348 15.9871 22.2909C15.7461 22.5449 15.7541 22.9439 16.0047 23.1818C16.0173 23.1948 16.0314 23.206 16.0454 23.2172C16.2964 23.4181 16.6652 23.3949 16.8936 23.1541C18.0006 21.9871 18.2691 20.5993 18.2435 19.4507C19.0387 20.6709 19.4054 22.1117 19.3234 23.5463C18.0727 24.054 16.9273 24.8748 16.0232 26.0044C15.1191 27.1341 14.5693 28.4314 14.3486 29.7621C12.3108 30.3438 10.044 29.979 8.27965 28.5669ZM27.5583 35.2365C25.2017 38.1809 20.9168 38.681 18.0061 36.3514C15.0954 34.0219 14.6446 29.7315 17.0011 26.7871C18.4966 24.9185 20.7679 24.038 22.9724 24.2358C22.4271 24.4157 21.9162 24.7255 21.5094 25.2337C21.2907 25.507 21.3331 25.9031 21.6027 26.1189C21.8724 26.3347 22.2685 26.2889 22.4869 26.016C23.4361 24.83 25.5992 25.3907 26.3991 25.6511C26.5206 26.3965 26.7127 28.3032 25.8155 29.7031C25.6398 29.9776 25.7015 30.3355 25.9482 30.533C25.9652 30.5466 25.9834 30.5597 26.0026 30.5723C26.2937 30.7587 26.6834 30.6702 26.8722 30.3759C27.5782 29.2741 27.759 27.9792 27.7599 26.9372C29.5292 29.3501 29.536 32.7655 27.5583 35.2365ZM31.8501 20.8605C29.668 21.2399 28.036 22.7986 27.1536 23.8532C26.7167 22.8427 25.8971 21.4821 24.5434 21.0715C24.2122 20.9709 23.8594 21.1588 23.7554 21.4928C23.6513 21.826 23.8343 22.1772 24.1667 22.278C24.7844 22.4653 25.2762 23.034 25.6384 23.6486C24.0393 22.9307 22.268 22.7697 20.596 23.1464C20.5964 21.3917 20.0322 19.6545 18.9311 18.2324C19.561 18.4436 20.2111 18.8502 20.5637 19.633C20.7067 19.9486 21.0788 20.0862 21.3953 19.9392C21.7123 19.7926 21.8529 19.418 21.711 19.1018C21.0186 17.5684 19.6344 17.0275 18.5744 16.8428C22.6268 12.9774 27.4296 15.9177 27.7582 16.127C29.0486 17.2586 30.4973 18.4548 32.1365 19.725C32.6174 20.098 33.0708 20.4644 33.505 20.826C32.9539 20.7605 32.4023 20.7652 31.8501 20.8605ZM32.1077 47.6377C29.1966 45.3078 28.7458 41.0173 31.1023 38.073C32.8055 35.9449 35.5154 35.1006 37.9862 35.6718C37.3127 35.807 36.6527 36.0885 36.1396 36.6232C35.8974 36.8762 35.903 37.2746 36.1515 37.5152C36.4117 37.7637 36.7993 37.7442 37.0413 37.4924C37.8883 36.6093 39.6632 36.7859 40.5683 36.9907C40.9309 38.0949 41.4299 40.3695 40.5515 41.3763C40.322 41.6396 40.3459 42.0378 40.6063 42.2652C40.6139 42.2714 40.6207 42.2768 40.628 42.2826C40.8878 42.4906 41.2697 42.4573 41.4936 42.2002C42.2782 41.3018 42.3793 39.9941 42.2568 38.8271C43.6195 41.1822 43.4782 44.2517 41.6607 46.5226C39.3034 49.4671 35.0184 49.9672 32.1077 47.6377Z" fill="#324950"/>
</svg>
